<svg><g id="SvgjsG1014" featurekey="symbolContainer" transform="matrix(2.772,0,0,2.772,0,0)" fill="#49beb7"><circle cx="25" cy="25" r="25"></circle></g><g id="SvgjsG1015" featurekey="symbolFeature-0" transform="matrix(0.693461928856664,0,0,0.693461928856664,18.639825010123367,12.00231217716559)" fill="#111111"><path xmlns="http://www.w3.org/2000/svg" fill="#111111" d="M89.992,153.997c-4.59,0-8.324-3.559-8.324-7.934v-9.145c-2.371,1.483-5.112,2.278-7.964,2.278  c-3.052,0-6.02-0.94-8.509-2.647v9.514c0,4.375-3.734,7.934-8.324,7.934c-4.589,0-8.323-3.559-8.323-7.934v-12.422  c-2.168-1.477-3.931-3.527-5.081-5.905c-3.912,0.297-7.807-0.965-10.793-3.471c-3.01-2.525-4.902-6.132-5.295-10.029  c-3.77-1.064-6.991-3.552-8.955-6.952c-1.965-3.401-2.509-7.437-1.546-11.235c-3.178-2.289-5.354-5.729-6.036-9.596  c-0.684-3.869,0.185-7.848,2.389-11.087c-2.203-3.238-3.072-7.214-2.39-11.081c0.681-3.87,2.857-7.311,6.037-9.602  c-0.962-3.797-0.418-7.83,1.545-11.23c1.963-3.403,5.185-5.893,8.956-6.958c0.394-3.897,2.284-7.501,5.293-10.025  c2.987-2.509,6.874-3.77,10.795-3.475c1.703-3.527,4.712-6.268,8.402-7.61c3.67-1.339,7.778-1.174,11.333,0.427  c2.807-2.732,6.573-4.279,10.5-4.279c3.929,0,7.694,1.546,10.501,4.279c3.553-1.6,7.66-1.767,11.33-0.43  c3.691,1.343,6.701,4.084,8.405,7.613c3.913-0.296,7.806,0.964,10.794,3.471c3.01,2.525,4.9,6.13,5.295,10.028  c3.77,1.064,6.991,3.552,8.955,6.954c1.965,3.402,2.508,7.437,1.545,11.234c3.179,2.29,5.355,5.729,6.037,9.598  c0.684,3.867-0.186,7.845-2.39,11.084c2.203,3.238,3.072,7.216,2.39,11.084c-0.681,3.868-2.857,7.309-6.036,9.599  c0.962,3.797,0.419,7.831-1.545,11.232c-1.964,3.403-5.187,5.892-8.956,6.956c-0.394,3.896-2.284,7.502-5.293,10.026  c-2.7,2.267-6.133,3.516-9.666,3.516l0,0c-0.375,0-0.753-0.014-1.129-0.042c-1.244,2.572-3.197,4.743-5.623,6.245v12.082  C98.315,150.438,94.581,153.997,89.992,153.997z M83.168,132.343c0.196,0,0.395,0.038,0.583,0.118  c0.556,0.234,0.917,0.778,0.917,1.382v12.221c0,2.721,2.389,4.934,5.324,4.934c2.935,0,5.323-2.213,5.323-4.934v-12.946  c0-0.552,0.303-1.06,0.79-1.321c2.508-1.35,4.464-3.559,5.505-6.22c0.255-0.652,0.928-1.035,1.622-0.937  c3.407,0.517,6.944-0.468,9.574-2.675c2.646-2.221,4.211-5.486,4.295-8.962c0.016-0.7,0.516-1.296,1.203-1.435  c3.408-0.686,6.354-2.795,8.08-5.788c1.728-2.991,2.082-6.596,0.972-9.891c-0.224-0.664,0.042-1.395,0.64-1.759  c2.969-1.811,5.016-4.801,5.615-8.202c0.6-3.402-0.302-6.911-2.471-9.627c-0.438-0.548-0.438-1.325,0-1.873  c2.17-2.717,3.07-6.226,2.471-9.627c-0.601-3.402-2.646-6.391-5.615-8.201c-0.598-0.365-0.864-1.096-0.641-1.76  c1.111-3.294,0.757-6.9-0.971-9.892c-1.727-2.991-4.672-5.1-8.081-5.786c-0.687-0.139-1.187-0.734-1.204-1.435  c-0.083-3.476-1.648-6.743-4.295-8.964c-2.629-2.206-6.164-3.188-9.573-2.673c-0.694,0.105-1.367-0.284-1.622-0.936  c-1.267-3.238-3.856-5.772-7.102-6.954c-3.236-1.177-6.884-0.889-9.909,0.762c-0.615,0.336-1.382,0.201-1.844-0.325  c-2.298-2.609-5.598-4.105-9.052-4.105c-3.454,0-6.752,1.496-9.051,4.105c-0.463,0.525-1.229,0.662-1.844,0.325  c-3.025-1.651-6.674-1.939-9.911-0.759c-3.246,1.181-5.833,3.714-7.101,6.951c-0.256,0.653-0.928,1.045-1.622,0.936  c-3.407-0.514-6.943,0.468-9.572,2.676c-2.646,2.22-4.211,5.485-4.295,8.96c-0.017,0.701-0.517,1.296-1.204,1.435  c-3.409,0.686-6.354,2.796-8.081,5.789c-1.727,2.991-2.081,6.595-0.971,9.889c0.224,0.665-0.042,1.395-0.641,1.76  c-2.969,1.811-5.015,4.8-5.613,8.203c-0.6,3.401,0.3,6.91,2.47,9.625c0.438,0.548,0.438,1.325,0,1.873  c-2.17,2.717-3.07,6.227-2.469,9.629c0.6,3.401,2.646,6.39,5.613,8.2c0.598,0.364,0.864,1.095,0.64,1.759  c-1.11,3.296-0.756,6.901,0.973,9.894c1.726,2.99,4.671,5.099,8.08,5.784c0.687,0.139,1.187,0.734,1.204,1.435  c0.083,3.476,1.649,6.743,4.297,8.964c2.628,2.206,6.166,3.188,9.572,2.673c0.691-0.101,1.366,0.284,1.622,0.937  c0.973,2.487,2.757,4.603,5.023,5.958c0.453,0.271,0.73,0.76,0.73,1.287v13.242c0,2.721,2.388,4.934,5.323,4.934  c2.936,0,5.324-2.213,5.324-4.934v-12.792c0-0.619,0.38-1.175,0.957-1.398c0.58-0.224,1.232-0.07,1.65,0.387  c2.287,2.502,5.53,3.938,8.898,3.938c3.162,0,6.151-1.218,8.42-3.429C82.406,132.49,82.784,132.343,83.168,132.343z M73.304,123.14  c-12.365,0-22.512-13.515-23.256-30.519c-1.604,1.277-3.713,2.226-5.953,2.226c-2.127,0-4.094-0.808-5.848-2.4  c-2.161-1.963-3.024-3.706-2.64-5.33c0.606-2.559,3.928-3.486,7.141-4.385c0.402-0.112,0.802-0.224,1.19-0.337  c2.005-0.586,4.532-2.621,7.117-5.73c0.324-0.39,0.82-0.6,1.329-0.53c0.539,0.063,1.011,0.094,1.442,0.094  c3.829,0,7.472-1.857,9.744-4.969c0.242-0.331,0.61-0.55,1.017-0.603c0.41-0.056,0.818,0.063,1.137,0.321  c2.171,1.755,4.792,2.683,7.579,2.683c2.794,0,5.518-0.977,7.67-2.75c0.32-0.263,0.732-0.384,1.146-0.329  c0.411,0.053,0.782,0.274,1.024,0.61c2.271,3.153,5.933,5.036,9.795,5.036c0.432,0,0.903-0.031,1.442-0.094  c0.501-0.069,1.004,0.141,1.329,0.53c2.584,3.109,5.112,5.145,7.117,5.73c0.388,0.113,0.788,0.225,1.19,0.337  c3.212,0.898,6.534,1.826,7.141,4.385c0.384,1.624-0.479,3.367-2.64,5.33c-1.754,1.593-3.722,2.4-5.849,2.4  c-2.312,0-4.484-1.009-6.105-2.35C95.864,109.56,85.699,123.14,73.304,123.14z M51.609,86.063c0.071,0,0.144,0.005,0.216,0.016  c0.776,0.112,1.335,0.804,1.282,1.587c-0.068,0.991-0.103,1.983-0.103,2.949c0,16.28,9.106,29.525,20.3,29.525  c11.193,0,20.299-13.245,20.299-29.525c0-1.316-0.066-2.68-0.197-4.054c-0.075-0.789,0.476-1.5,1.258-1.624  c0.786-0.125,1.526,0.382,1.699,1.155l0.361,1.621c0.016,0.069,0.026,0.14,0.032,0.21c0.071,0.92,2.694,3.924,5.914,3.924  c1.358,0,2.647-0.545,3.831-1.621c1.88-1.707,1.744-2.39,1.738-2.418c-0.199-0.837-3.341-1.715-5.029-2.187  c-0.414-0.115-0.825-0.23-1.225-0.348c-2.497-0.729-5.208-2.774-8.066-6.083c-0.343,0.025-0.667,0.037-0.98,0.037  c-4.317,0-8.432-1.881-11.28-5.096c-2.462,1.639-5.377,2.528-8.355,2.528c-2.931,0-5.811-0.868-8.253-2.468  c-2.845,3.177-6.941,5.035-11.224,5.035c-0.313,0-0.637-0.012-0.98-0.037c-2.858,3.309-5.569,5.354-8.066,6.083  c-0.4,0.117-0.811,0.232-1.225,0.348c-1.688,0.472-4.831,1.35-5.029,2.187c-0.007,0.028-0.142,0.711,1.737,2.418  c1.185,1.076,2.474,1.621,3.832,1.621c3.219,0,5.842-3.004,5.914-3.924c0.005-0.07,0.016-0.141,0.031-0.209l0.106-0.477  C50.3,86.543,50.917,86.063,51.609,86.063z"></path><path xmlns="http://www.w3.org/2000/svg" d="M67.177,86.55c-0.827-0.095-1.57,0.487-1.669,1.31c-0.024,0.202-0.313,1.977-2.857,1.977c-2.558,0-3.167-1.788-3.264-2.155  c-0.196-0.797-0.996-1.288-1.799-1.103c-0.807,0.189-1.307,0.996-1.118,1.803c0.361,1.541,2.118,4.455,6.181,4.455  c4.175,0,5.643-3.02,5.836-4.617C68.585,87.396,67.999,86.649,67.177,86.55z"></path><path xmlns="http://www.w3.org/2000/svg" d="M88.055,86.55c-0.826-0.095-1.57,0.487-1.669,1.31c-0.024,0.202-0.313,1.977-2.857,1.977c-2.558,0-3.167-1.788-3.264-2.155  c-0.196-0.797-0.994-1.288-1.799-1.103c-0.807,0.189-1.307,0.996-1.118,1.803c0.361,1.541,2.118,4.455,6.181,4.455  c4.175,0,5.643-3.02,5.836-4.617C89.463,87.396,88.877,86.649,88.055,86.55z"></path><circle xmlns="http://www.w3.org/2000/svg" cx="73.604" cy="116.007" r="2.752"></circle></g></svg>
